<svg id="visual" viewBox="0 0 900 600" width="900" height="600" xmlns="http://www.w3.org/2000/svg" xmlns:xlink="http://www.w3.org/1999/xlink" version="1.1"><path d="M0 468L13.7 462.2C27.3 456.3 54.7 444.7 82 439.8C109.3 435 136.7 437 163.8 436.7C191 436.3 218 433.7 245.2 436.5C272.3 439.3 299.7 447.7 327 449.8C354.3 452 381.7 448 409 448.5C436.3 449 463.7 454 491 450.8C518.3 447.7 545.7 436.3 573 438C600.3 439.7 627.7 454.3 654.8 460.2C682 466 709 463 736.2 462.5C763.3 462 790.7 464 818 466.2C845.3 468.3 872.7 470.7 886.3 471.8L900 473L900 601L886.3 601C872.7 601 845.3 601 818 601C790.7 601 763.3 601 736.2 601C709 601 682 601 654.8 601C627.7 601 600.3 601 573 601C545.7 601 518.3 601 491 601C463.7 601 436.3 601 409 601C381.7 601 354.3 601 327 601C299.7 601 272.3 601 245.2 601C218 601 191 601 163.8 601C136.7 601 109.3 601 82 601C54.7 601 27.3 601 13.7 601L0 601Z" fill="#dc4f67"></path><path d="M0 455L13.7 456C27.3 457 54.7 459 82 463.7C109.3 468.3 136.7 475.7 163.8 479.7C191 483.7 218 484.3 245.2 485.8C272.3 487.3 299.7 489.7 327 489C354.3 488.3 381.7 484.7 409 478.7C436.3 472.7 463.7 464.3 491 463.5C518.3 462.7 545.7 469.3 573 474.8C600.3 480.3 627.7 484.7 654.8 484.8C682 485 709 481 736.2 480.2C763.3 479.3 790.7 481.7 818 482.7C845.3 483.7 872.7 483.3 886.3 483.2L900 483L900 601L886.3 601C872.7 601 845.3 601 818 601C790.7 601 763.3 601 736.2 601C709 601 682 601 654.8 601C627.7 601 600.3 601 573 601C545.7 601 518.3 601 491 601C463.7 601 436.3 601 409 601C381.7 601 354.3 601 327 601C299.7 601 272.3 601 245.2 601C218 601 191 601 163.8 601C136.7 601 109.3 601 82 601C54.7 601 27.3 601 13.7 601L0 601Z" fill="#e87683"></path><path d="M0 490L13.7 490C27.3 490 54.7 490 82 489.5C109.3 489 136.7 488 163.8 492.2C191 496.3 218 505.7 245.2 504.2C272.3 502.7 299.7 490.3 327 488.5C354.3 486.7 381.7 495.3 409 500.7C436.3 506 463.7 508 491 505.3C518.3 502.7 545.7 495.3 573 493.7C600.3 492 627.7 496 654.8 494.2C682 492.3 709 484.7 736.2 486.7C763.3 488.7 790.7 500.3 818 501C845.3 501.7 872.7 491.3 886.3 486.2L900 481L900 601L886.3 601C872.7 601 845.3 601 818 601C790.7 601 763.3 601 736.2 601C709 601 682 601 654.8 601C627.7 601 600.3 601 573 601C545.7 601 518.3 601 491 601C463.7 601 436.3 601 409 601C381.7 601 354.3 601 327 601C299.7 601 272.3 601 245.2 601C218 601 191 601 163.8 601C136.7 601 109.3 601 82 601C54.7 601 27.3 601 13.7 601L0 601Z" fill="#f199a1"></path><path d="M0 528L13.7 529.5C27.3 531 54.7 534 82 533C109.3 532 136.7 527 163.8 526.3C191 525.7 218 529.3 245.2 529.5C272.3 529.7 299.7 526.3 327 522C354.3 517.7 381.7 512.3 409 512.7C436.3 513 463.7 519 491 521.8C518.3 524.7 545.7 524.3 573 522.8C600.3 521.3 627.7 518.7 654.8 517.7C682 516.7 709 517.3 736.2 520.2C763.3 523 790.7 528 818 529.5C845.3 531 872.7 529 886.3 528L900 527L900 601L886.3 601C872.7 601 845.3 601 818 601C790.7 601 763.3 601 736.2 601C709 601 682 601 654.8 601C627.7 601 600.3 601 573 601C545.7 601 518.3 601 491 601C463.7 601 436.3 601 409 601C381.7 601 354.3 601 327 601C299.7 601 272.3 601 245.2 601C218 601 191 601 163.8 601C136.7 601 109.3 601 82 601C54.7 601 27.3 601 13.7 601L0 601Z" fill="#f8bbbf"></path><path d="M0 547L13.7 546C27.3 545 54.7 543 82 542.2C109.3 541.3 136.7 541.7 163.8 541C191 540.3 218 538.7 245.2 538.7C272.3 538.7 299.7 540.3 327 542.7C354.3 545 381.7 548 409 547.7C436.3 547.3 463.7 543.7 491 540.7C518.3 537.7 545.7 535.3 573 534C600.3 532.7 627.7 532.3 654.8 534C682 535.7 709 539.3 736.2 540.5C763.3 541.7 790.7 540.3 818 540.2C845.3 540 872.7 541 886.3 541.5L900 542L900 601L886.3 601C872.7 601 845.3 601 818 601C790.7 601 763.3 601 736.2 601C709 601 682 601 654.8 601C627.7 601 600.3 601 573 601C545.7 601 518.3 601 491 601C463.7 601 436.3 601 409 601C381.7 601 354.3 601 327 601C299.7 601 272.3 601 245.2 601C218 601 191 601 163.8 601C136.7 601 109.3 601 82 601C54.7 601 27.3 601 13.7 601L0 601Z" fill="#fddddf"></path><path d="M0 572L13.7 570.2C27.3 568.3 54.7 564.7 82 565C109.3 565.3 136.7 569.7 163.8 570.7C191 571.7 218 569.3 245.2 567.8C272.3 566.3 299.7 565.7 327 563.7C354.3 561.7 381.7 558.3 409 559.8C436.3 561.3 463.7 567.7 491 570.8C518.3 574 545.7 574 573 572.2C600.3 570.3 627.7 566.7 654.8 566C682 565.3 709 567.7 736.2 569.3C763.3 571 790.7 572 818 572.8C845.3 573.7 872.7 574.3 886.3 574.7L900 575L900 601L886.3 601C872.7 601 845.3 601 818 601C790.7 601 763.3 601 736.2 601C709 601 682 601 654.8 601C627.7 601 600.3 601 573 601C545.7 601 518.3 601 491 601C463.7 601 436.3 601 409 601C381.7 601 354.3 601 327 601C299.7 601 272.3 601 245.2 601C218 601 191 601 163.8 601C136.7 601 109.3 601 82 601C54.7 601 27.3 601 13.7 601L0 601Z" fill="#ffffff"></path></svg>