<svg id="visual" viewBox="0 0 900 600" width="900" height="600" xmlns="http://www.w3.org/2000/svg" xmlns:xlink="http://www.w3.org/1999/xlink" version="1.1"><path d="M0 130L11.5 127.5C23 125 46 120 69 124.8C92 129.7 115 144.3 138.2 145.2C161.3 146 184.7 133 207.8 133.8C231 134.7 254 149.3 277 152.2C300 155 323 146 346 137.7C369 129.3 392 121.7 415.2 122.5C438.3 123.3 461.7 132.7 484.8 135.5C508 138.3 531 134.7 554 137.7C577 140.7 600 150.3 623 145.2C646 140 669 120 692.2 118C715.3 116 738.7 132 761.8 132C785 132 808 116 831 112.7C854 109.3 877 118.7 888.5 123.3L900 128L900 601L888.5 601C877 601 854 601 831 601C808 601 785 601 761.8 601C738.7 601 715.3 601 692.2 601C669 601 646 601 623 601C600 601 577 601 554 601C531 601 508 601 484.8 601C461.7 601 438.3 601 415.2 601C392 601 369 601 346 601C323 601 300 601 277 601C254 601 231 601 207.8 601C184.7 601 161.3 601 138.2 601C115 601 92 601 69 601C46 601 23 601 11.5 601L0 601Z" fill="#cc0d40"></path><path d="M0 241L11.5 239.8C23 238.7 46 236.3 69 234.8C92 233.3 115 232.7 138.2 230.7C161.3 228.7 184.7 225.3 207.8 220C231 214.7 254 207.3 277 208.2C300 209 323 218 346 215.5C369 213 392 199 415.2 201.7C438.3 204.3 461.7 223.7 484.8 230.8C508 238 531 233 554 222.8C577 212.7 600 197.3 623 190.3C646 183.3 669 184.7 692.2 188.5C715.3 192.3 738.7 198.7 761.8 198C785 197.3 808 189.7 831 192.7C854 195.7 877 209.3 888.5 216.2L900 223L900 601L888.5 601C877 601 854 601 831 601C808 601 785 601 761.8 601C738.7 601 715.3 601 692.2 601C669 601 646 601 623 601C600 601 577 601 554 601C531 601 508 601 484.8 601C461.7 601 438.3 601 415.2 601C392 601 369 601 346 601C323 601 300 601 277 601C254 601 231 601 207.8 601C184.7 601 161.3 601 138.2 601C115 601 92 601 69 601C46 601 23 601 11.5 601L0 601Z" fill="#db4c5c"></path><path d="M0 262L11.5 262.2C23 262.3 46 262.7 69 267.8C92 273 115 283 138.2 278C161.3 273 184.7 253 207.8 247.7C231 242.3 254 251.7 277 263.5C300 275.3 323 289.7 346 296C369 302.3 392 300.7 415.2 294.7C438.3 288.7 461.7 278.3 484.8 275C508 271.7 531 275.3 554 280.8C577 286.3 600 293.7 623 293.8C646 294 669 287 692.2 283.5C715.3 280 738.7 280 761.8 274C785 268 808 256 831 248.3C854 240.7 877 237.3 888.5 235.7L900 234L900 601L888.5 601C877 601 854 601 831 601C808 601 785 601 761.8 601C738.7 601 715.3 601 692.2 601C669 601 646 601 623 601C600 601 577 601 554 601C531 601 508 601 484.8 601C461.7 601 438.3 601 415.2 601C392 601 369 601 346 601C323 601 300 601 277 601C254 601 231 601 207.8 601C184.7 601 161.3 601 138.2 601C115 601 92 601 69 601C46 601 23 601 11.5 601L0 601Z" fill="#e7737b"></path><path d="M0 308L11.5 315.5C23 323 46 338 69 338.7C92 339.3 115 325.7 138.2 317.7C161.3 309.7 184.7 307.3 207.8 309.8C231 312.3 254 319.7 277 319.2C300 318.7 323 310.3 346 313C369 315.7 392 329.3 415.2 333.5C438.3 337.7 461.7 332.3 484.8 331.8C508 331.3 531 335.7 554 334.7C577 333.7 600 327.3 623 325.5C646 323.7 669 326.3 692.2 323C715.3 319.7 738.7 310.3 761.8 308.5C785 306.7 808 312.3 831 321.5C854 330.7 877 343.3 888.5 349.7L900 356L900 601L888.5 601C877 601 854 601 831 601C808 601 785 601 761.8 601C738.7 601 715.3 601 692.2 601C669 601 646 601 623 601C600 601 577 601 554 601C531 601 508 601 484.8 601C461.7 601 438.3 601 415.2 601C392 601 369 601 346 601C323 601 300 601 277 601C254 601 231 601 207.8 601C184.7 601 161.3 601 138.2 601C115 601 92 601 69 601C46 601 23 601 11.5 601L0 601Z" fill="#f1979a"></path><path d="M0 397L11.5 395C23 393 46 389 69 386.2C92 383.3 115 381.7 138.2 382.2C161.3 382.7 184.7 385.3 207.8 385C231 384.7 254 381.3 277 386C300 390.7 323 403.3 346 409C369 414.7 392 413.3 415.2 407C438.3 400.7 461.7 389.3 484.8 390.5C508 391.7 531 405.3 554 408.2C577 411 600 403 623 402C646 401 669 407 692.2 409.8C715.3 412.7 738.7 412.3 761.8 407.5C785 402.7 808 393.3 831 386.5C854 379.7 877 375.3 888.5 373.2L900 371L900 601L888.5 601C877 601 854 601 831 601C808 601 785 601 761.8 601C738.7 601 715.3 601 692.2 601C669 601 646 601 623 601C600 601 577 601 554 601C531 601 508 601 484.8 601C461.7 601 438.3 601 415.2 601C392 601 369 601 346 601C323 601 300 601 277 601C254 601 231 601 207.8 601C184.7 601 161.3 601 138.2 601C115 601 92 601 69 601C46 601 23 601 11.5 601L0 601Z" fill="#f9babb"></path><path d="M0 438L11.5 444.7C23 451.3 46 464.7 69 467.7C92 470.7 115 463.3 138.2 457.3C161.3 451.3 184.7 446.7 207.8 450.2C231 453.7 254 465.3 277 472.7C300 480 323 483 346 481.7C369 480.3 392 474.7 415.2 470.7C438.3 466.7 461.7 464.3 484.8 460.3C508 456.3 531 450.7 554 448.7C577 446.7 600 448.3 623 452.8C646 457.3 669 464.7 692.2 470.3C715.3 476 738.7 480 761.8 479.2C785 478.3 808 472.7 831 469C854 465.3 877 463.7 888.5 462.8L900 462L900 601L888.5 601C877 601 854 601 831 601C808 601 785 601 761.8 601C738.7 601 715.3 601 692.2 601C669 601 646 601 623 601C600 601 577 601 554 601C531 601 508 601 484.8 601C461.7 601 438.3 601 415.2 601C392 601 369 601 346 601C323 601 300 601 277 601C254 601 231 601 207.8 601C184.7 601 161.3 601 138.2 601C115 601 92 601 69 601C46 601 23 601 11.5 601L0 601Z" fill="#fddcdc"></path><path d="M0 541L11.5 536.5C23 532 46 523 69 523.2C92 523.3 115 532.7 138.2 531.8C161.3 531 184.7 520 207.8 514.5C231 509 254 509 277 513C300 517 323 525 346 524C369 523 392 513 415.2 508.7C438.3 504.3 461.7 505.7 484.8 506.5C508 507.3 531 507.7 554 513.5C577 519.3 600 530.7 623 534.2C646 537.7 669 533.3 692.2 529.3C715.3 525.3 738.7 521.7 761.8 520C785 518.3 808 518.7 831 522.8C854 527 877 535 888.5 539L900 543L900 601L888.5 601C877 601 854 601 831 601C808 601 785 601 761.8 601C738.7 601 715.3 601 692.2 601C669 601 646 601 623 601C600 601 577 601 554 601C531 601 508 601 484.8 601C461.7 601 438.3 601 415.2 601C392 601 369 601 346 601C323 601 300 601 277 601C254 601 231 601 207.8 601C184.7 601 161.3 601 138.2 601C115 601 92 601 69 601C46 601 23 601 11.5 601L0 601Z" fill="#ffffff"></path></svg>